<svg width="40" height="40" viewBox="0 0 40 40" fill="none" xmlns="http://www.w3.org/2000/svg">
    <path
        d="M21.4867 9.50337C21.3325 9.34886 21.1494 9.22628 20.9477 9.14265C20.7461 9.05901 20.53 9.01596 20.3117 9.01596C20.0934 9.01596 19.8773 9.05901 19.6757 9.14265C19.474 9.22628 19.2909 9.34886 19.1367 9.50337L10.9867 17.6367L2.8367 9.4867C2.6824 9.3324 2.49921 9.21 2.29761 9.12649C2.096 9.04298 1.87992 9 1.6617 9C1.44348 9 1.2274 9.04298 1.0258 9.12649C0.824188 9.21 0.641004 9.3324 0.486701 9.4867C0.332397 9.641 0.209997 9.82419 0.126489 10.0258C0.0429807 10.2274 -1.62585e-09 10.4435 0 10.6617C1.62585e-09 10.8799 0.0429807 11.096 0.126489 11.2976C0.209997 11.4992 0.332397 11.6824 0.486701 11.8367L8.6367 19.9867L0.486701 28.1367C0.332397 28.291 0.209997 28.4742 0.126489 28.6758C0.0429807 28.8774 0 29.0935 0 29.3117C0 29.5299 0.0429807 29.746 0.126489 29.9476C0.209997 30.1492 0.332397 30.3324 0.486701 30.4867C0.641004 30.641 0.824188 30.7634 1.0258 30.8469C1.2274 30.9304 1.44348 30.9734 1.6617 30.9734C1.87992 30.9734 2.096 30.9304 2.29761 30.8469C2.49921 30.7634 2.6824 30.641 2.8367 30.4867L10.9867 22.3367L19.1367 30.4867C19.291 30.641 19.4742 30.7634 19.6758 30.8469C19.8774 30.9304 20.0935 30.9734 20.3117 30.9734C20.5299 30.9734 20.746 30.9304 20.9476 30.8469C21.1492 30.7634 21.3324 30.641 21.4867 30.4867C21.641 30.3324 21.7634 30.1492 21.8469 29.9476C21.9304 29.746 21.9734 29.5299 21.9734 29.3117C21.9734 29.0935 21.9304 28.8774 21.8469 28.6758C21.7634 28.4742 21.641 28.291 21.4867 28.1367L13.3367 19.9867L21.4867 11.8367C22.12 11.2034 22.12 10.1367 21.4867 9.50337Z"
        fill="#7011B6" />
</svg>