<svg width="113" height="48" viewBox="0 0 113 48" fill="none" xmlns="http://www.w3.org/2000/svg">
<path d="M-0.00497149 37V0.636363H5.48153V32.277H21.9588V37H-0.00497149ZM39.2795 37.5504C36.7227 37.5504 34.4914 36.9645 32.5856 35.7926C30.6798 34.6207 29.2002 32.9813 28.1467 30.8743C27.0932 28.7673 26.5664 26.3052 26.5664 23.4879C26.5664 20.6589 27.0932 18.1849 28.1467 16.0661C29.2002 13.9472 30.6798 12.3018 32.5856 11.13C34.4914 9.9581 36.7227 9.37216 39.2795 9.37216C41.8363 9.37216 44.0676 9.9581 45.9734 11.13C47.8791 12.3018 49.3588 13.9472 50.4123 16.0661C51.4658 18.1849 51.9925 20.6589 51.9925 23.4879C51.9925 26.3052 51.4658 28.7673 50.4123 30.8743C49.3588 32.9813 47.8791 34.6207 45.9734 35.7926C44.0676 36.9645 41.8363 37.5504 39.2795 37.5504ZM39.2972 33.0938C40.9544 33.0938 42.3275 32.6558 43.4165 31.7798C44.5056 30.9039 45.3105 29.7379 45.8313 28.282C46.364 26.826 46.6303 25.2221 46.6303 23.4702C46.6303 21.7301 46.364 20.1321 45.8313 18.6761C45.3105 17.2083 44.5056 16.0305 43.4165 15.1428C42.3275 14.255 40.9544 13.8111 39.2972 13.8111C37.6282 13.8111 36.2433 14.255 35.1424 15.1428C34.0534 16.0305 33.2425 17.2083 32.7099 18.6761C32.189 20.1321 31.9286 21.7301 31.9286 23.4702C31.9286 25.2221 32.189 26.826 32.7099 28.282C33.2425 29.7379 34.0534 30.9039 35.1424 31.7798C36.2433 32.6558 37.6282 33.0938 39.2972 33.0938ZM69.3532 47.7955C67.187 47.7955 65.3226 47.5114 63.7601 46.9432C62.2095 46.375 60.9429 45.6233 59.9604 44.6882C58.9779 43.7531 58.244 42.7292 57.7587 41.6165L62.3219 39.7344C62.6415 40.2552 63.0676 40.8056 63.6003 41.3857C64.1448 41.9775 64.8787 42.4806 65.802 42.8949C66.7372 43.3092 67.9386 43.5163 69.4064 43.5163C71.4187 43.5163 73.0819 43.0251 74.3958 42.0426C75.7097 41.072 76.3667 39.5213 76.3667 37.3906V32.0284H76.0293C75.7097 32.6084 75.248 33.2536 74.6444 33.9638C74.0525 34.674 73.2357 35.2895 72.1941 35.8104C71.1524 36.3312 69.7971 36.5916 68.128 36.5916C65.9737 36.5916 64.0324 36.0885 62.3042 35.0824C60.5878 34.0644 59.2265 32.567 58.2203 30.5902C57.226 28.6016 56.7289 26.1572 56.7289 23.2571C56.7289 20.357 57.2201 17.8712 58.2026 15.7997C59.1969 13.7282 60.5582 12.142 62.2864 11.0412C64.0146 9.9285 65.9737 9.37216 68.1635 9.37216C69.8562 9.37216 71.2234 9.65625 72.2651 10.2244C73.3068 10.7808 74.1176 11.4318 74.6976 12.1776C75.2895 12.9233 75.7452 13.5803 76.0648 14.1484H76.4554V9.72727H81.6578V37.6037C81.6578 39.9474 81.1133 41.871 80.0243 43.3743C78.9353 44.8776 77.4616 45.9903 75.6032 46.7124C73.7566 47.4344 71.6732 47.7955 69.3532 47.7955ZM69.2999 32.1882C70.8269 32.1882 72.1171 31.8331 73.1706 31.1229C74.236 30.4008 75.0409 29.371 75.5854 28.0334C76.1417 26.6839 76.4199 25.0682 76.4199 23.1861C76.4199 21.3513 76.1477 19.7356 75.6032 18.3388C75.0587 16.942 74.2596 15.853 73.2061 15.0717C72.1526 14.2786 70.8506 13.8821 69.2999 13.8821C67.7019 13.8821 66.3702 14.2964 65.3049 15.125C64.2395 15.9418 63.4346 17.0544 62.8901 18.4631C62.3574 19.8717 62.0911 21.446 62.0911 23.1861C62.0911 24.9735 62.3633 26.5419 62.9078 27.8913C63.4524 29.2408 64.2573 30.2943 65.3226 31.0518C66.3998 31.8094 67.7256 32.1882 69.2999 32.1882ZM100.266 37.5504C97.709 37.5504 95.4777 36.9645 93.5719 35.7926C91.6661 34.6207 90.1865 32.9813 89.133 30.8743C88.0795 28.7673 87.5527 26.3052 87.5527 23.4879C87.5527 20.6589 88.0795 18.1849 89.133 16.0661C90.1865 13.9472 91.6661 12.3018 93.5719 11.13C95.4777 9.9581 97.709 9.37216 100.266 9.37216C102.823 9.37216 105.054 9.9581 106.96 11.13C108.865 12.3018 110.345 13.9472 111.399 16.0661C112.452 18.1849 112.979 20.6589 112.979 23.4879C112.979 26.3052 112.452 28.7673 111.399 30.8743C110.345 32.9813 108.865 34.6207 106.96 35.7926C105.054 36.9645 102.823 37.5504 100.266 37.5504ZM100.284 33.0938C101.941 33.0938 103.314 32.6558 104.403 31.7798C105.492 30.9039 106.297 29.7379 106.818 28.282C107.35 26.826 107.617 25.2221 107.617 23.4702C107.617 21.7301 107.35 20.1321 106.818 18.6761C106.297 17.2083 105.492 16.0305 104.403 15.1428C103.314 14.255 101.941 13.8111 100.284 13.8111C98.6145 13.8111 97.2296 14.255 96.1287 15.1428C95.0397 16.0305 94.2289 17.2083 93.6962 18.6761C93.1754 20.1321 92.915 21.7301 92.915 23.4702C92.915 25.2221 93.1754 26.826 93.6962 28.282C94.2289 29.7379 95.0397 30.9039 96.1287 31.7798C97.2296 32.6558 98.6145 33.0938 100.284 33.0938Z" fill="#7011B6"/>
</svg>
