<svg width="48" height="48" viewBox="0 0 48 48" fill="none" xmlns="http://www.w3.org/2000/svg">
<path d="M24 0C19.2533 0 14.6131 1.40758 10.6663 4.04473C6.71954 6.68188 3.6434 10.4302 1.8269 14.8156C0.0103988 19.201 -0.464881 24.0266 0.461164 28.6822C1.38721 33.3377 3.67299 37.6141 7.02945 40.9706C10.3859 44.327 14.6623 46.6128 19.3178 47.5388C23.9734 48.4649 28.799 47.9896 33.1844 46.1731C37.5698 44.3566 41.3181 41.2805 43.9553 37.3337C46.5924 33.3869 48 28.7467 48 24C48 17.6348 45.4714 11.5303 40.9706 7.02944C36.4697 2.52856 30.3652 0 24 0ZM13.7143 41.8114C13.969 39.2741 15.1571 36.9218 17.0482 35.2111C18.9393 33.5003 21.3985 32.553 23.9486 32.553C26.4987 32.553 28.9578 33.5003 30.8489 35.2111C32.74 36.9218 33.9282 39.2741 34.1829 41.8114C31.0753 43.6197 27.544 44.5724 23.9486 44.5724C20.3531 44.5724 16.8219 43.6197 13.7143 41.8114ZM37.2686 39.6514C36.5379 36.6703 34.8283 34.0205 32.4134 32.1261C29.9985 30.2316 27.0179 29.202 23.9486 29.202C20.8793 29.202 17.8987 30.2316 15.4838 32.1261C13.0689 34.0205 11.3593 36.6703 10.6286 39.6514C7.41965 36.9249 5.12471 33.2793 4.05369 29.207C2.98267 25.1346 3.18716 20.8317 4.63955 16.8792C6.09194 12.9268 8.72225 9.51527 12.1753 7.10535C15.6283 4.69544 19.7377 3.40322 23.9486 3.40322C28.1594 3.40322 32.2688 4.69544 35.7219 7.10535C39.1749 9.51527 41.8052 12.9268 43.2576 16.8792C44.71 20.8317 44.9145 25.1346 43.8435 29.207C42.7724 33.2793 40.4775 36.9249 37.2686 39.6514ZM24 10.2857C22.3047 10.2857 20.6475 10.7884 19.238 11.7303C17.8284 12.6721 16.7298 14.0108 16.081 15.577C15.4323 17.1432 15.2625 18.8666 15.5933 20.5293C15.924 22.192 16.7404 23.7193 17.9391 24.9181C19.1378 26.1168 20.6651 26.9331 22.3278 27.2639C23.9905 27.5946 25.7139 27.4249 27.2802 26.7761C28.8464 26.1274 30.185 25.0287 31.1269 23.6192C32.0687 22.2096 32.5714 20.5524 32.5714 18.8571C32.5714 16.5839 31.6684 14.4037 30.0609 12.7962C28.4535 11.1888 26.2733 10.2857 24 10.2857ZM24 24C22.9828 24 21.9885 23.6984 21.1428 23.1333C20.2971 22.5682 19.6379 21.765 19.2486 20.8252C18.8594 19.8855 18.7575 18.8514 18.956 17.8538C19.1544 16.8562 19.6442 15.9398 20.3635 15.2206C21.0827 14.5013 21.9991 14.0115 22.9967 13.8131C23.9943 13.6147 25.0284 13.7165 25.9681 14.1058C26.9078 14.495 27.711 15.1542 28.2761 15.9999C28.8412 16.8457 29.1429 17.84 29.1429 18.8571C29.1429 20.2211 28.601 21.5292 27.6366 22.4937C26.6721 23.4582 25.364 24 24 24Z" fill="white"/>
</svg>
