<svg width="260" height="260" viewBox="0 0 260 260" fill="none" xmlns="http://www.w3.org/2000/svg">
<g filter="url(#filter0_d_590_1919)">
<g clip-path="url(#clip0_590_1919)">
<rect x="30" y="30" width="200" height="200" rx="100" fill="url(#paint0_linear_590_1919)"/>
<path d="M191.333 192C196.222 201.333 198.667 235.333 198.667 235.333H61.3335C61.3335 235.333 63.7782 201.333 68.6668 192C76.0002 178 130 160 130 160C130 160 184 178 191.333 192Z" fill="#1C0122"/>
<mask id="mask0_590_1919" style="mask-type:alpha" maskUnits="userSpaceOnUse" x="61" y="160" width="138" height="76">
<path d="M191.333 192C196.222 201.333 198.667 235.333 198.667 235.333H61.3335C61.3335 235.333 63.7782 201.333 68.6668 192C76.0002 178 130 160 130 160C130 160 184 178 191.333 192Z" fill="url(#paint1_linear_590_1919)"/>
</mask>
<g mask="url(#mask0_590_1919)">
<path d="M192.667 229.333C192.667 228.542 192.901 227.769 193.341 227.111C193.78 226.453 194.405 225.941 195.136 225.638C195.867 225.335 196.671 225.256 197.447 225.41C198.223 225.565 198.936 225.946 199.495 226.505C200.055 227.064 200.436 227.777 200.59 228.553C200.744 229.329 200.665 230.133 200.362 230.864C200.06 231.595 199.547 232.22 198.889 232.659C198.231 233.099 197.458 233.333 196.667 233.333C195.606 233.333 194.589 232.912 193.838 232.162C193.088 231.412 192.667 230.394 192.667 229.333ZM166 229.333C166 228.542 166.235 227.769 166.674 227.111C167.114 226.453 167.739 225.941 168.469 225.638C169.2 225.335 170.005 225.256 170.781 225.41C171.556 225.565 172.269 225.946 172.829 226.505C173.388 227.064 173.769 227.777 173.923 228.553C174.078 229.329 173.998 230.133 173.696 230.864C173.393 231.595 172.88 232.22 172.222 232.659C171.565 233.099 170.791 233.333 170 233.333C168.939 233.333 167.922 232.912 167.172 232.162C166.422 231.412 166 230.394 166 229.333ZM139.333 229.333C139.333 228.542 139.568 227.769 140.008 227.111C140.447 226.453 141.072 225.941 141.803 225.638C142.534 225.335 143.338 225.256 144.114 225.41C144.89 225.565 145.603 225.946 146.162 226.505C146.721 227.064 147.102 227.777 147.257 228.553C147.411 229.329 147.332 230.133 147.029 230.864C146.726 231.595 146.214 232.22 145.556 232.659C144.898 233.099 144.125 233.333 143.333 233.333C142.273 233.333 141.255 232.912 140.505 232.162C139.755 231.412 139.333 230.394 139.333 229.333ZM112.667 229.333C112.667 228.542 112.901 227.769 113.341 227.111C113.78 226.453 114.405 225.941 115.136 225.638C115.867 225.335 116.671 225.256 117.447 225.41C118.223 225.565 118.936 225.946 119.495 226.505C120.055 227.064 120.436 227.777 120.59 228.553C120.744 229.329 120.665 230.133 120.362 230.864C120.06 231.595 119.547 232.22 118.889 232.659C118.231 233.099 117.458 233.333 116.667 233.333C115.606 233.333 114.589 232.912 113.838 232.162C113.088 231.412 112.667 230.394 112.667 229.333ZM86.0002 229.333C86.0002 228.542 86.2348 227.769 86.6743 227.111C87.1138 226.453 87.7385 225.941 88.4694 225.638C89.2003 225.335 90.0046 225.256 90.7805 225.41C91.5564 225.565 92.2692 225.946 92.8286 226.505C93.388 227.064 93.769 227.777 93.9233 228.553C94.0776 229.329 93.9984 230.133 93.6957 230.864C93.3929 231.595 92.8802 232.22 92.2224 232.659C91.5646 233.099 90.7913 233.333 90.0002 233.333C88.9393 233.333 87.9219 232.912 87.1717 232.162C86.4216 231.412 86.0002 230.394 86.0002 229.333ZM59.3335 229.333C59.3335 228.542 59.5681 227.769 60.0076 227.111C60.4471 226.453 61.0719 225.941 61.8028 225.638C62.5337 225.335 63.3379 225.256 64.1139 225.41C64.8898 225.565 65.6025 225.946 66.1619 226.505C66.7213 227.064 67.1023 227.777 67.2566 228.553C67.411 229.329 67.3318 230.133 67.029 230.864C66.7263 231.595 66.2136 232.22 65.5558 232.659C64.898 233.099 64.1246 233.333 63.3335 233.333C62.2726 233.333 61.2552 232.912 60.5051 232.162C59.7549 231.412 59.3335 230.394 59.3335 229.333V229.333ZM179.333 216C179.333 215.209 179.568 214.436 180.008 213.778C180.447 213.12 181.072 212.607 181.803 212.305C182.534 212.002 183.338 211.923 184.114 212.077C184.89 212.231 185.603 212.612 186.162 213.172C186.721 213.731 187.102 214.444 187.257 215.22C187.411 215.996 187.332 216.8 187.029 217.531C186.726 218.262 186.214 218.886 185.556 219.326C184.898 219.765 184.125 220 183.333 220C182.273 220 181.255 219.579 180.505 218.828C179.755 218.078 179.333 217.061 179.333 216ZM152.667 216C152.667 215.209 152.901 214.436 153.341 213.778C153.78 213.12 154.405 212.607 155.136 212.305C155.867 212.002 156.671 211.923 157.447 212.077C158.223 212.231 158.936 212.612 159.495 213.172C160.055 213.731 160.436 214.444 160.59 215.22C160.744 215.996 160.665 216.8 160.362 217.531C160.06 218.262 159.547 218.886 158.889 219.326C158.231 219.765 157.458 220 156.667 220C155.606 220 154.589 219.579 153.838 218.828C153.088 218.078 152.667 217.061 152.667 216ZM126 216C126 215.209 126.235 214.436 126.674 213.778C127.114 213.12 127.739 212.607 128.469 212.305C129.2 212.002 130.005 211.923 130.781 212.077C131.556 212.231 132.269 212.612 132.829 213.172C133.388 213.731 133.769 214.444 133.923 215.22C134.078 215.996 133.998 216.8 133.696 217.531C133.393 218.262 132.88 218.886 132.222 219.326C131.565 219.765 130.791 220 130 220C128.939 220 127.922 219.579 127.172 218.828C126.422 218.078 126 217.061 126 216ZM99.3335 216C99.3335 215.209 99.5681 214.436 100.008 213.778C100.447 213.12 101.072 212.607 101.803 212.305C102.534 212.002 103.338 211.923 104.114 212.077C104.89 212.231 105.603 212.612 106.162 213.172C106.721 213.731 107.102 214.444 107.257 215.22C107.411 215.996 107.332 216.8 107.029 217.531C106.726 218.262 106.214 218.886 105.556 219.326C104.898 219.765 104.125 220 103.333 220C102.273 220 101.255 219.579 100.505 218.828C99.7549 218.078 99.3335 217.061 99.3335 216ZM72.6668 216C72.6668 215.209 72.9014 214.436 73.341 213.778C73.7805 213.12 74.4052 212.607 75.1361 212.305C75.867 212.002 76.6713 211.923 77.4472 212.077C78.2231 212.231 78.9358 212.612 79.4953 213.172C80.0547 213.731 80.4356 214.444 80.59 215.22C80.7443 215.996 80.6651 216.8 80.3623 217.531C80.0596 218.262 79.5469 218.886 78.8891 219.326C78.2313 219.765 77.458 220 76.6668 220C75.606 220 74.5885 219.579 73.8384 218.828C73.0883 218.078 72.6668 217.061 72.6668 216ZM192.667 202.667C192.667 201.876 192.901 201.102 193.341 200.444C193.78 199.787 194.405 199.274 195.136 198.971C195.867 198.668 196.671 198.589 197.447 198.744C198.223 198.898 198.936 199.279 199.495 199.838C200.055 200.398 200.436 201.11 200.59 201.886C200.744 202.662 200.665 203.467 200.362 204.197C200.06 204.928 199.547 205.553 198.889 205.993C198.231 206.432 197.458 206.667 196.667 206.667C195.606 206.667 194.589 206.245 193.838 205.495C193.088 204.745 192.667 203.728 192.667 202.667ZM166 202.667C166 201.876 166.235 201.102 166.674 200.444C167.114 199.787 167.739 199.274 168.469 198.971C169.2 198.668 170.005 198.589 170.781 198.744C171.556 198.898 172.269 199.279 172.829 199.838C173.388 200.398 173.769 201.11 173.923 201.886C174.078 202.662 173.998 203.467 173.696 204.197C173.393 204.928 172.88 205.553 172.222 205.993C171.565 206.432 170.791 206.667 170 206.667C168.939 206.667 167.922 206.245 167.172 205.495C166.422 204.745 166 203.728 166 202.667ZM139.333 202.667C139.333 201.876 139.568 201.102 140.008 200.444C140.447 199.787 141.072 199.274 141.803 198.971C142.534 198.668 143.338 198.589 144.114 198.744C144.89 198.898 145.603 199.279 146.162 199.838C146.721 200.398 147.102 201.11 147.257 201.886C147.411 202.662 147.332 203.467 147.029 204.197C146.726 204.928 146.214 205.553 145.556 205.993C144.898 206.432 144.125 206.667 143.333 206.667C142.273 206.667 141.255 206.245 140.505 205.495C139.755 204.745 139.333 203.728 139.333 202.667ZM112.667 202.667C112.667 201.876 112.901 201.102 113.341 200.444C113.78 199.787 114.405 199.274 115.136 198.971C115.867 198.668 116.671 198.589 117.447 198.744C118.223 198.898 118.936 199.279 119.495 199.838C120.055 200.398 120.436 201.11 120.59 201.886C120.744 202.662 120.665 203.467 120.362 204.197C120.06 204.928 119.547 205.553 118.889 205.993C118.231 206.432 117.458 206.667 116.667 206.667C115.606 206.667 114.589 206.245 113.838 205.495C113.088 204.745 112.667 203.728 112.667 202.667ZM86.0002 202.667C86.0002 201.876 86.2348 201.102 86.6743 200.444C87.1138 199.787 87.7385 199.274 88.4694 198.971C89.2003 198.668 90.0046 198.589 90.7805 198.744C91.5564 198.898 92.2692 199.279 92.8286 199.838C93.388 200.398 93.769 201.11 93.9233 201.886C94.0776 202.662 93.9984 203.467 93.6957 204.197C93.3929 204.928 92.8802 205.553 92.2224 205.993C91.5646 206.432 90.7913 206.667 90.0002 206.667C88.9393 206.667 87.9219 206.245 87.1717 205.495C86.4216 204.745 86.0002 203.728 86.0002 202.667ZM59.3335 202.667C59.3335 201.876 59.5681 201.102 60.0076 200.444C60.4471 199.787 61.0719 199.274 61.8028 198.971C62.5337 198.668 63.3379 198.589 64.1139 198.744C64.8898 198.898 65.6025 199.279 66.1619 199.838C66.7213 200.398 67.1023 201.11 67.2566 201.886C67.411 202.662 67.3318 203.467 67.029 204.197C66.7263 204.928 66.2136 205.553 65.5558 205.993C64.898 206.432 64.1246 206.667 63.3335 206.667C62.2726 206.667 61.2552 206.245 60.5051 205.495C59.7549 204.745 59.3335 203.728 59.3335 202.667V202.667ZM179.333 189.333C179.333 188.542 179.568 187.769 180.008 187.111C180.447 186.453 181.072 185.941 181.803 185.638C182.534 185.335 183.338 185.256 184.114 185.41C184.89 185.565 185.603 185.946 186.162 186.505C186.721 187.064 187.102 187.777 187.257 188.553C187.411 189.329 187.332 190.133 187.029 190.864C186.726 191.595 186.214 192.22 185.556 192.659C184.898 193.099 184.125 193.333 183.333 193.333C182.273 193.333 181.255 192.912 180.505 192.162C179.755 191.412 179.333 190.394 179.333 189.333ZM152.667 189.333C152.667 188.542 152.901 187.769 153.341 187.111C153.78 186.453 154.405 185.941 155.136 185.638C155.867 185.335 156.671 185.256 157.447 185.41C158.223 185.565 158.936 185.946 159.495 186.505C160.055 187.064 160.436 187.777 160.59 188.553C160.744 189.329 160.665 190.133 160.362 190.864C160.06 191.595 159.547 192.22 158.889 192.659C158.231 193.099 157.458 193.333 156.667 193.333C155.606 193.333 154.589 192.912 153.838 192.162C153.088 191.412 152.667 190.394 152.667 189.333ZM126 189.333C126 188.542 126.235 187.769 126.674 187.111C127.114 186.453 127.739 185.941 128.469 185.638C129.2 185.335 130.005 185.256 130.781 185.41C131.556 185.565 132.269 185.946 132.829 186.505C133.388 187.064 133.769 187.777 133.923 188.553C134.078 189.329 133.998 190.133 133.696 190.864C133.393 191.595 132.88 192.22 132.222 192.659C131.565 193.099 130.791 193.333 130 193.333C128.939 193.333 127.922 192.912 127.172 192.162C126.422 191.412 126 190.394 126 189.333ZM99.3335 189.333C99.3335 188.542 99.5681 187.769 100.008 187.111C100.447 186.453 101.072 185.941 101.803 185.638C102.534 185.335 103.338 185.256 104.114 185.41C104.89 185.565 105.603 185.946 106.162 186.505C106.721 187.064 107.102 187.777 107.257 188.553C107.411 189.329 107.332 190.133 107.029 190.864C106.726 191.595 106.214 192.22 105.556 192.659C104.898 193.099 104.125 193.333 103.333 193.333C102.273 193.333 101.255 192.912 100.505 192.162C99.7549 191.412 99.3335 190.394 99.3335 189.333ZM72.6668 189.333C72.6668 188.542 72.9014 187.769 73.341 187.111C73.7805 186.453 74.4052 185.941 75.1361 185.638C75.867 185.335 76.6713 185.256 77.4472 185.41C78.2231 185.565 78.9358 185.946 79.4953 186.505C80.0547 187.064 80.4356 187.777 80.59 188.553C80.7443 189.329 80.6651 190.133 80.3623 190.864C80.0596 191.595 79.5469 192.22 78.8891 192.659C78.2313 193.099 77.458 193.333 76.6668 193.333C75.606 193.333 74.5885 192.912 73.8384 192.162C73.0883 191.412 72.6668 190.394 72.6668 189.333ZM192.667 176C192.667 175.209 192.901 174.436 193.341 173.778C193.78 173.12 194.405 172.607 195.136 172.305C195.867 172.002 196.671 171.923 197.447 172.077C198.223 172.231 198.936 172.612 199.495 173.172C200.055 173.731 200.436 174.444 200.59 175.22C200.744 175.996 200.665 176.8 200.362 177.531C200.06 178.262 199.547 178.886 198.889 179.326C198.231 179.765 197.458 180 196.667 180C195.606 180 194.589 179.579 193.838 178.828C193.088 178.078 192.667 177.061 192.667 176ZM166 176C166 175.209 166.235 174.436 166.674 173.778C167.114 173.12 167.739 172.607 168.469 172.305C169.2 172.002 170.005 171.923 170.781 172.077C171.556 172.231 172.269 172.612 172.829 173.172C173.388 173.731 173.769 174.444 173.923 175.22C174.078 175.996 173.998 176.8 173.696 177.531C173.393 178.262 172.88 178.886 172.222 179.326C171.565 179.765 170.791 180 170 180C168.939 180 167.922 179.579 167.172 178.828C166.422 178.078 166 177.061 166 176ZM86.0002 176C86.0002 175.209 86.2348 174.436 86.6743 173.778C87.1138 173.12 87.7385 172.607 88.4694 172.305C89.2003 172.002 90.0046 171.923 90.7805 172.077C91.5564 172.231 92.2692 172.612 92.8286 173.172C93.388 173.731 93.769 174.444 93.9233 175.22C94.0776 175.996 93.9984 176.8 93.6957 177.531C93.3929 178.262 92.8802 178.886 92.2224 179.326C91.5646 179.765 90.7913 180 90.0002 180C88.9393 180 87.9219 179.579 87.1717 178.828C86.4216 178.078 86.0002 177.061 86.0002 176ZM59.3335 176C59.3335 175.209 59.5681 174.436 60.0076 173.778C60.4471 173.12 61.0719 172.607 61.8028 172.305C62.5337 172.002 63.3379 171.923 64.1139 172.077C64.8898 172.231 65.6025 172.612 66.1619 173.172C66.7213 173.731 67.1023 174.444 67.2566 175.22C67.411 175.996 67.3318 176.8 67.029 177.531C66.7263 178.262 66.2136 178.886 65.5558 179.326C64.898 179.765 64.1246 180 63.3335 180C62.2726 180 61.2552 179.579 60.5051 178.828C59.7549 178.078 59.3335 177.061 59.3335 176V176Z" fill="#F0D2FD"/>
</g>
<path d="M137.243 65.1333C134.576 53.4667 147.221 44.514 160.243 50.66C190.909 65.1333 172.667 85.3333 161.333 84C150 82.6667 139.909 76.8 137.243 65.1333Z" fill="url(#paint2_linear_590_1919)"/>
<path opacity="0.6" d="M148.333 67C148.333 67 171 81.6667 176.667 73.6667C177.251 77.0073 174.563 86.4433 170.333 86.3333C157.682 86.004 148.333 67 148.333 67Z" fill="black"/>
<path d="M144.667 138.667C130.345 145.547 128.255 145.179 96.6666 119.333C49 80.3333 94 44.6666 142.333 63.6666C194.667 86.6666 177.134 123.071 144.667 138.667Z" fill="url(#paint3_linear_590_1919)"/>
<path d="M146.001 166C141.112 174 118.889 174 114.001 166V152.667C114.001 152.667 111.825 152.733 110.334 152.667C94.7401 152 89.5295 126.915 91.9768 101.825C93.7688 83.4507 109.334 108.667 134.667 91.0001C133.667 110.333 142.001 108.333 145.667 106C162.334 98.3334 162.473 129.761 146.001 127.333V166Z" fill="#F0D2FD"/>
<path d="M114.001 152.663C122.997 151.995 136.413 142.597 136.413 142.597C136.413 142.597 129.995 156.327 114.001 158.661L114.001 152.663Z" fill="#B63FE0"/>
<path d="M146 164.307V160C147.223 160 150.724 162.888 152.524 165.333C159.642 175 151.747 183.667 145.308 183.667C137.184 183.667 131.8 176.879 130 173.613C128.2 176.88 122.816 183.667 114.692 183.667C108.254 183.667 100.359 175 107.476 165.333C109.277 162.888 112.778 160 114 160V164.307C114 169.405 125.16 171.765 129.978 171.983C134.539 171.765 146 169.405 146 164.307Z" fill="white"/>
</g>
</g>
<defs>
<filter id="filter0_d_590_1919" x="0" y="0" width="260" height="260" filterUnits="userSpaceOnUse" color-interpolation-filters="sRGB">
<feFlood flood-opacity="0" result="BackgroundImageFix"/>
<feColorMatrix in="SourceAlpha" type="matrix" values="0 0 0 0 0 0 0 0 0 0 0 0 0 0 0 0 0 0 127 0" result="hardAlpha"/>
<feMorphology radius="9" operator="dilate" in="SourceAlpha" result="effect1_dropShadow_590_1919"/>
<feOffset/>
<feGaussianBlur stdDeviation="10.5"/>
<feComposite in2="hardAlpha" operator="out"/>
<feColorMatrix type="matrix" values="0 0 0 0 0.439216 0 0 0 0 0.0666667 0 0 0 0 0.713726 0 0 0 0.25 0"/>
<feBlend mode="normal" in2="BackgroundImageFix" result="effect1_dropShadow_590_1919"/>
<feBlend mode="normal" in="SourceGraphic" in2="effect1_dropShadow_590_1919" result="shape"/>
</filter>
<linearGradient id="paint0_linear_590_1919" x1="130" y1="230" x2="130" y2="30" gradientUnits="userSpaceOnUse">
<stop stop-color="#7011B6"/>
<stop offset="1" stop-color="#F6C2FF"/>
</linearGradient>
<linearGradient id="paint1_linear_590_1919" x1="183.148" y1="224.184" x2="130.368" y2="134.588" gradientUnits="userSpaceOnUse">
<stop stop-color="#E2834C"/>
<stop offset="1" stop-color="#DF6638"/>
</linearGradient>
<linearGradient id="paint2_linear_590_1919" x1="157.014" y1="48.6635" x2="157.014" y2="84.0627" gradientUnits="userSpaceOnUse">
<stop stop-color="#1D0024"/>
<stop offset="1" stop-color="#100014"/>
</linearGradient>
<linearGradient id="paint3_linear_590_1919" x1="125.963" y1="58.4048" x2="125.963" y2="142.456" gradientUnits="userSpaceOnUse">
<stop stop-color="#1D0024"/>
<stop offset="1" stop-color="#100014"/>
</linearGradient>
<clipPath id="clip0_590_1919">
<rect x="30" y="30" width="200" height="200" rx="100" fill="white"/>
</clipPath>
</defs>
</svg>
