<svg width="262" height="262" viewBox="0 0 262 262" fill="none" xmlns="http://www.w3.org/2000/svg">
<g filter="url(#filter0_d_590_1912)">
<g clip-path="url(#clip0_590_1912)">
<rect x="31" y="31" width="200" height="200" rx="100" fill="url(#paint0_linear_590_1912)"/>
<path d="M151.667 147V155C151.667 165.667 167 170.333 167 170.333C167 170.333 149.333 183.667 131 183.667C112.667 183.667 95 170.333 95 170.333C95 170.333 110.454 165.667 110.333 155C110.213 144.333 110.293 138.067 110.213 119.792C100.658 107.407 101.271 99.0953 106.496 93.2499C124 73.6666 171.667 80.3333 171.667 80.3333C171.667 80.3333 176.115 128.329 166 142.333C161.667 148.333 151.667 147 151.667 147Z" fill="#F0D2FD"/>
<path style="mix-blend-mode:multiply" opacity="0.6" d="M151.667 147C137 145.333 128.333 139 128.333 139C133.805 147.095 142.144 152.813 151.667 155V147Z" fill="#B63FE0"/>
<path d="M201 190.539C207.347 203.443 211 233.205 211 233.205H51C51 233.205 54.6547 203.44 61 190.539C67.3453 177.637 104.4 165.671 104.4 165.671C111.542 180.333 150.739 180.333 157.581 165.667C157.581 165.667 194.653 177.634 201 190.539Z" fill="url(#paint1_linear_590_1912)"/>
<path d="M128.333 216.333C128.333 215.806 128.49 215.29 128.783 214.852C129.076 214.413 129.492 214.072 129.98 213.87C130.467 213.668 131.003 213.615 131.52 213.718C132.038 213.821 132.513 214.075 132.886 214.448C133.259 214.821 133.513 215.296 133.616 215.813C133.718 216.33 133.666 216.867 133.464 217.354C133.262 217.841 132.92 218.258 132.482 218.551C132.043 218.844 131.528 219 131 219C130.293 219 129.615 218.719 129.115 218.219C128.614 217.719 128.333 217.041 128.333 216.333ZM128.333 203C128.333 202.473 128.49 201.957 128.783 201.519C129.076 201.08 129.492 200.738 129.98 200.536C130.467 200.335 131.003 200.282 131.52 200.385C132.038 200.488 132.513 200.742 132.886 201.114C133.259 201.487 133.513 201.963 133.616 202.48C133.718 202.997 133.666 203.533 133.464 204.021C133.262 204.508 132.92 204.924 132.482 205.217C132.043 205.51 131.528 205.667 131 205.667C130.293 205.667 129.615 205.386 129.115 204.886C128.614 204.386 128.333 203.707 128.333 203ZM128.333 189.667C128.333 189.139 128.49 188.624 128.783 188.185C129.076 187.747 129.492 187.405 129.98 187.203C130.467 187.001 131.003 186.948 131.52 187.051C132.038 187.154 132.513 187.408 132.886 187.781C133.259 188.154 133.513 188.629 133.616 189.146C133.718 189.664 133.666 190.2 133.464 190.687C133.262 191.174 132.92 191.591 132.482 191.884C132.043 192.177 131.528 192.333 131 192.333C130.293 192.333 129.615 192.052 129.115 191.552C128.614 191.052 128.333 190.374 128.333 189.667Z" fill="white"/>
<path d="M118.437 99.806C116.317 97.9853 113.741 96.7593 110.099 98.6513C101.467 103.133 108 120.333 115.667 120.333C117.667 120.333 118.661 126.615 109.757 131C109.757 124 99.09 106.667 98.1567 90.8853C87.4233 86.8886 90.09 70.8973 97.4587 70.8973C96.2827 56.2386 119.757 48.6666 128.846 57.0793C138.09 46 161.423 51.6666 162.832 61.2786C178.877 52.714 189.423 77.3333 174.4 86.8906C168.218 90.824 153.757 92.3206 132.881 92.3206C129.73 92.3206 127.965 93.1033 128.846 97C130.552 104.551 126.591 109.307 118.437 99.806Z" fill="url(#paint2_linear_590_1912)"/>
</g>
</g>
<defs>
<filter id="filter0_d_590_1912" x="0.1" y="0.1" width="261.8" height="261.8" filterUnits="userSpaceOnUse" color-interpolation-filters="sRGB">
<feFlood flood-opacity="0" result="BackgroundImageFix"/>
<feColorMatrix in="SourceAlpha" type="matrix" values="0 0 0 0 0 0 0 0 0 0 0 0 0 0 0 0 0 0 127 0" result="hardAlpha"/>
<feMorphology radius="9" operator="dilate" in="SourceAlpha" result="effect1_dropShadow_590_1912"/>
<feOffset/>
<feGaussianBlur stdDeviation="10.95"/>
<feComposite in2="hardAlpha" operator="out"/>
<feColorMatrix type="matrix" values="0 0 0 0 0.439216 0 0 0 0 0.0666667 0 0 0 0 0.713726 0 0 0 0.25 0"/>
<feBlend mode="normal" in2="BackgroundImageFix" result="effect1_dropShadow_590_1912"/>
<feBlend mode="normal" in="SourceGraphic" in2="effect1_dropShadow_590_1912" result="shape"/>
</filter>
<linearGradient id="paint0_linear_590_1912" x1="131" y1="231" x2="131" y2="31" gradientUnits="userSpaceOnUse">
<stop stop-color="#00664A"/>
<stop offset="1" stop-color="#D9FFF4"/>
</linearGradient>
<linearGradient id="paint1_linear_590_1912" x1="131" y1="165.667" x2="131" y2="233.205" gradientUnits="userSpaceOnUse">
<stop stop-color="#1D0024"/>
<stop offset="1" stop-color="#14000C"/>
</linearGradient>
<linearGradient id="paint2_linear_590_1912" x1="136.322" y1="50.9983" x2="136.322" y2="131" gradientUnits="userSpaceOnUse">
<stop stop-color="#1D0024"/>
<stop offset="1" stop-color="#14000C"/>
</linearGradient>
<clipPath id="clip0_590_1912">
<rect x="31" y="31" width="200" height="200" rx="100" fill="white"/>
</clipPath>
</defs>
</svg>
