<svg width="32" height="32" viewBox="0 0 32 32" fill="none" xmlns="http://www.w3.org/2000/svg">
<path d="M27.6133 12.3867L19.6133 4.38667C19.4905 4.26673 19.3456 4.17166 19.1867 4.10667C19.0214 4.03949 18.8451 4.00333 18.6667 4H8C6.93913 4 5.92172 4.42143 5.17157 5.17157C4.42143 5.92172 4 6.93913 4 8V24C4 25.0609 4.42143 26.0783 5.17157 26.8284C5.92172 27.5786 6.93913 28 8 28H24C25.0609 28 26.0783 27.5786 26.8284 26.8284C27.5786 26.0783 28 25.0609 28 24V13.3333C28.001 13.1579 27.9674 12.9839 27.901 12.8215C27.8347 12.659 27.7369 12.5113 27.6133 12.3867ZM12 6.66667H17.3333V9.33333H12V6.66667ZM20 25.3333H12V21.3333C12 20.9797 12.1405 20.6406 12.3905 20.3905C12.6406 20.1405 12.9797 20 13.3333 20H18.6667C19.0203 20 19.3594 20.1405 19.6095 20.3905C19.8595 20.6406 20 20.9797 20 21.3333V25.3333ZM25.3333 24C25.3333 24.3536 25.1929 24.6928 24.9428 24.9428C24.6928 25.1929 24.3536 25.3333 24 25.3333H22.6667V21.3333C22.6667 20.2725 22.2452 19.2551 21.4951 18.5049C20.7449 17.7548 19.7275 17.3333 18.6667 17.3333H13.3333C12.2725 17.3333 11.2551 17.7548 10.5049 18.5049C9.75476 19.2551 9.33333 20.2725 9.33333 21.3333V25.3333H8C7.64638 25.3333 7.30724 25.1929 7.05719 24.9428C6.80714 24.6928 6.66667 24.3536 6.66667 24V8C6.66667 7.64638 6.80714 7.30724 7.05719 7.05719C7.30724 6.80714 7.64638 6.66667 8 6.66667H9.33333V10.6667C9.33333 11.0203 9.47381 11.3594 9.72386 11.6095C9.97391 11.8595 10.313 12 10.6667 12H18.6667C19.0203 12 19.3594 11.8595 19.6095 11.6095C19.8595 11.3594 20 11.0203 20 10.6667V8.54667L25.3333 13.88V24Z" fill="#9441D0"/>
</svg>
